<?xml version="1.0" encoding="utf-8"?>
<!-- Generator: Adobe Illustrator 25.0.0, SVG Export Plug-In . SVG Version: 6.00 Build 0)  -->
<svg version="1.1" id="Calque_1" xmlns="http://www.w3.org/2000/svg" xmlns:xlink="http://www.w3.org/1999/xlink" x="0px" y="0px"
	 viewBox="0 0 1920 942" style="enable-background:new 0 0 1920 942;" xml:space="preserve">
<style type="text/css">
	.st0{fill:none;stroke:#707070;stroke-width:7;stroke-miterlimit:10;}
	.st1{fill:none;stroke:#707070;stroke-width:7;stroke-miterlimit:10;stroke-dasharray:0.9977,19.9534;}
	.st2{fill:none;stroke:#707070;stroke-width:7;stroke-miterlimit:10;stroke-dasharray:11.972,11.972,0.9977,19.9534;}
	.st3{fill:#FFFFFF;}
	.st4{fill:none;stroke:#707070;stroke-miterlimit:10;}
</style>
<g>
	<g>
		<path class="st0" d="M995.3,39.3c1.8-0.8,3.7-1.6,5.5-2.3"/>
		<path class="st1" d="M1012,32.6c3.4-1.3,6.9-2.6,10.3-3.8"/>
		<path class="st2" d="M1031.8,25.6C1140.8-10,1246.4,2,1299.5,60.3c88.8,97.6,18,310.7-103,387.9c-156.5,99.8-325.3-73.6-483.2,27
			C601.2,546.6,523,738,606.1,850.1c59.7,80.4,194.2,108.7,325.4,56.6"/>
		<path class="st0" d="M940.7,902.9c1.8-0.8,3.7-1.6,5.5-2.4"/>
	</g>
</g>
<g>
	
		<image style="overflow:visible;opacity:0.8;" width="207" height="219" xlink:href="1C7D1039.png"  transform="matrix(1 0 0 1 859 358)">
	</image>
	<g>
		<path class="st3" d="M1039.8,538.8l14.8-153.4c2.1-22.2-20.6-38.3-40.8-29.1l-140.6,64.5c-20.3,9.3-22.8,37-4.6,49.9l125.8,88.9
			C1012.4,572.5,1037.6,560.9,1039.8,538.8z"/>
		<path class="st4" d="M1039.8,538.8l14.8-153.4c2.1-22.2-20.6-38.3-40.8-29.1l-140.6,64.5c-20.3,9.3-22.8,37-4.6,49.9l125.8,88.9
			C1012.4,572.5,1037.6,560.9,1039.8,538.8z"/>
	</g>
</g>
</svg>
